<?xml version="1.0" standalone="no"?>
<!DOCTYPE svg PUBLIC "-//W3C//DTD SVG 20010904//EN"
 "http://www.w3.org/TR/2001/REC-SVG-20010904/DTD/svg10.dtd">
<svg version="1.0" xmlns="http://www.w3.org/2000/svg"
 width="700.000000pt" height="1280.000000pt" viewBox="0 0 700.000000 1280.000000"
 preserveAspectRatio="xMidYMid meet">

<g transform="translate(0.000000,1280.000000) scale(0.100000,-0.100000)"
fill="#ff9800" stroke="none">


<path d="M1685 10785 c-83 -30 -134 -119 -121 -210 9 -59 70 -130 125 -145 20
-5 100 -10 178 -10 126 0 142 -2 147 -17 3 -10 28 -162 56 -338 29 -176 87
-540 131 -810 43 -269 95 -591 115 -715 46 -292 59 -326 145 -371 35 -17 89
-19 1110 -25 832 -6 1082 -4 1111 5 48 16 104 79 119 133 22 81 -22 176 -98
214 -36 18 -82 19 -1015 24 -537 3 -979 8 -983 11 -3 4 -10 35 -15 70 -6 35
-13 74 -15 87 l-6 23 1096 -2 c1065 -1 1096 0 1132 18 62 32 90 84 108 193 54
345 185 1260 185 1295 0 55 -14 92 -48 129 -60 63 32 59 -1419 66 -727 3
-1324 8 -1326 10 -2 3 -13 63 -24 133 -18 111 -25 134 -51 165 -60 75 -67 77
-347 80 -199 2 -258 -1 -290 -13z m1428 -752 c2 -5 2 -90 -1 -190 l-4 -183
-294 0 -294 0 -5 23 c-6 28 -55 335 -55 347 0 12 647 14 653 3z m757 -193 l0
-190 -133 0 c-74 0 -202 3 -285 7 l-152 6 0 184 0 183 285 0 285 0 0 -190z
m911 185 c4 -4 -29 -248 -46 -342 l-6 -33 -334 0 -335 0 0 190 0 190 358 0
c197 0 361 -2 363 -5z m-1671 -745 l0 -190 -249 0 -249 0 -6 28 c-6 30 -56
340 -56 347 0 3 126 5 280 5 l280 0 0 -190z m758 -2 l2 -188 -285 0 -285 0 0
190 0 190 283 -2 282 -3 3 -187z m832 172 c0 -23 -52 -354 -56 -362 -6 -10
-154 -10 -404 -1 l-185 6 3 183 3 184 319 0 c213 0 320 -3 320 -10z"/>
<path d="M2753 7951 c-86 -22 -170 -98 -198 -180 -47 -138 13 -284 143 -348
112 -55 250 -30 330 61 57 66 67 93 67 191 0 98 -10 125 -67 191 -61 69 -186
108 -275 85z" fill="#33FF61" stroke="none"/>
<path d="M4441 7939 c-166 -48 -249 -240 -170 -397 51 -103 135 -156 249 -156
105 0 194 51 247 141 38 66 44 178 13 251 -55 127 -206 199 -339 161z" fill="#33FF61" stroke="none"/>
</g>

</svg>
